{
  "accessors": [
    {
      "bufferView": 2,
      "componentType": 5126,
      "count": 9826,
      "max": [
        425.7358703613281,
        369.7477111816406,
        259.1836242675781
      ],
      "min": [
        -350.6102600097656,
        -316.1226501464844,
        -249.5644989013672
      ],
      "type": "VEC3"
    },
    {
      "bufferView": 2,
      "byteOffset": 117912,
      "componentType": 5126,
      "count": 9826,
      "max": [
        0.0,
        -0.0,
        1.0
      ],
      "min": [
        0.0,
        -0.0,
        1.0
      ],
      "type": "VEC3"
    },
    {
      "bufferView": 1,
      "componentType": 5126,
      "count": 9826,
      "max": [
        1.0,
        1.0
      ],
      "min": [
        0.0,
        0.0
      ],
      "type": "VEC2"
    },
    {
      "bufferView": 0,
      "componentType": 5125,
      "count": 25704,
      "type": "SCALAR"
    },
    {
      "bufferView": 2,
      "byteOffset": 235824,
      "componentType": 5126,
      "count": 9826,
      "max": [
        410.5909729003906,
        359.4411926269531,
        39.19781494140625
      ],
      "min": [
        -416.805419921875,
        -353.1517028808594,
        -253.8408660888672
      ],
      "type": "VEC3"
    },
    {
      "bufferView": 2,
      "byteOffset": 353736,
      "componentType": 5126,
      "count": 9826,
      "max": [
        0.0,
        -0.0,
        1.0
      ],
      "min": [
        0.0,
        -0.0,
        1.0
      ],
      "type": "VEC3"
    },
    {
      "bufferView": 1,
      "byteOffset": 78608,
      "componentType": 5126,
      "count": 9826,
      "max": [
        1.0,
        1.0
      ],
      "min": [
        0.0,
        0.0
      ],
      "type": "VEC2"
    },
    {
      "bufferView": 0,
      "byteOffset": 102816,
      "componentType": 5125,
      "count": 25704,
      "type": "SCALAR"
    },
    {
      "bufferView": 2,
      "byteOffset": 471648,
      "componentType": 5126,
      "count": 9826,
      "max": [
        429.11578369140625,
        376.779541015625,
        259.3609924316406
      ],
      "min": [
        -418.534423828125,
        -374.8656921386719,
        -236.7540740966797
      ],
      "type": "VEC3"
    },
    {
      "bufferView": 2,
      "byteOffset": 589560,
      "componentType": 5126,
      "count": 9826,
      "max": [
        0.0,
        -0.0,
        1.0
      ],
      "min": [
        0.0,
        -0.0,
        1.0
      ],
      "type": "VEC3"
    },
    {
      "bufferView": 1,
      "byteOffset": 157216,
      "componentType": 5126,
      "count": 9826,
      "max": [
        1.0,
        1.0
      ],
      "min": [
        0.0,
        0.0
      ],
      "type": "VEC2"
    },
    {
      "bufferView": 0,
      "byteOffset": 205632,
      "componentType": 5125,
      "count": 25704,
      "type": "SCALAR"
    },
    {
      "bufferView": 2,
      "byteOffset": 707472,
      "componentType": 5126,
      "count": 9826,
      "max": [
        427.5419006347656,
        373.6019592285156,
        237.37796020507813
      ],
      "min": [
        -389.0710754394531,
        -371.8310546875,
        -268.59027099609375
      ],
      "type": "VEC3"
    },
    {
      "bufferView": 2,
      "byteOffset": 825384,
      "componentType": 5126,
      "count": 9826,
      "max": [
        0.0,
        -0.0,
        1.0
      ],
      "min": [
        0.0,
        -0.0,
        1.0
      ],
      "type": "VEC3"
    },
    {
      "bufferView": 1,
      "byteOffset": 235824,
      "componentType": 5126,
      "count": 9826,
      "max": [
        1.0,
        1.0
      ],
      "min": [
        0.0,
        0.0
      ],
      "type": "VEC2"
    },
    {
      "bufferView": 0,
      "byteOffset": 308448,
      "componentType": 5125,
      "count": 25704,
      "type": "SCALAR"
    },
    {
      "bufferView": 2,
      "byteOffset": 943296,
      "componentType": 5126,
      "count": 9826,
      "max": [
        419.17633056640625,
        365.537353515625,
        231.11183166503906
      ],
      "min": [
        -396.41583251953125,
        -372.069580078125,
        -256.5556640625
      ],
      "type": "VEC3"
    },
    {
      "bufferView": 2,
      "byteOffset": 1061208,
      "componentType": 5126,
      "count": 9826,
      "max": [
        0.0,
        -0.0,
        1.0
      ],
      "min": [
        0.0,
        -0.0,
        1.0
      ],
      "type": "VEC3"
    },
    {
      "bufferView": 1,
      "byteOffset": 314432,
      "componentType": 5126,
      "count": 9826,
      "max": [
        1.0,
        1.0
      ],
      "min": [
        0.0,
        0.0
      ],
      "type": "VEC2"
    },
    {
      "bufferView": 0,
      "byteOffset": 411264,
      "componentType": 5125,
      "count": 25704,
      "type": "SCALAR"
    },
    {
      "bufferView": 2,
      "byteOffset": 1179120,
      "componentType": 5126,
      "count": 2890,
      "max": [
        347.4310607910156,
        321.3767395019531,
        132.6118927001953
      ],
      "min": [
        -421.62994384765625,
        -297.8714294433594,
        -218.93653869628906
      ],
      "type": "VEC3"
    },
    {
      "bufferView": 2,
      "byteOffset": 1213800,
      "componentType": 5126,
      "count": 2890,
      "max": [
        0.0,
        -0.0,
        1.0
      ],
      "min": [
        0.0,
        -0.0,
        1.0
      ],
      "type": "VEC3"
    },
    {
      "bufferView": 1,
      "byteOffset": 393040,
      "componentType": 5126,
      "count": 2890,
      "max": [
        1.0,
        1.0
      ],
      "min": [
        0.0,
        0.0
      ],
      "type": "VEC2"
    },
    {
      "bufferView": 0,
      "byteOffset": 514080,
      "componentType": 5125,
      "count": 7560,
      "type": "SCALAR"
    },
    {
      "bufferView": 2,
      "byteOffset": 1248480,
      "componentType": 5126,
      "count": 9720,
      "max": [
        426.8133850097656,
        316.4375,
        260.120361328125
      ],
      "min": [
        -315.6859130859375,
        -345.7785339355469,
        -251.57334899902344
      ],
      "type": "VEC3"
    },
    {
      "bufferView": 2,
      "byteOffset": 1365120,
      "componentType": 5126,
      "count": 9720,
      "max": [
        0.0,
        -0.0,
        1.0
      ],
      "min": [
        0.0,
        -0.0,
        1.0
      ],
      "type": "VEC3"
    },
    {
      "bufferView": 1,
      "byteOffset": 416160,
      "componentType": 5126,
      "count": 9720,
      "max": [
        1.0,
        1.0
      ],
      "min": [
        0.0,
        0.0
      ],
      "type": "VEC2"
    },
    {
      "bufferView": 0,
      "byteOffset": 544320,
      "componentType": 5125,
      "count": 23328,
      "type": "SCALAR"
    },
    {
      "bufferView": 2,
      "byteOffset": 1481760,
      "componentType": 5126,
      "count": 9720,
      "max": [
        400.78143310546875,
        336.06964111328125,
        193.7472381591797
      ],
      "min": [
        -387.1611328125,
        -358.5533752441406,
        -257.53753662109375
      ],
      "type": "VEC3"
    },
    {
      "bufferView": 2,
      "byteOffset": 1598400,
      "componentType": 5126,
      "count": 9720,
      "max": [
        0.0,
        -0.0,
        1.0
      ],
      "min": [
        0.0,
        -0.0,
        1.0
      ],
      "type": "VEC3"
    },
    {
      "bufferView": 1,
      "byteOffset": 493920,
      "componentType": 5126,
      "count": 9720,
      "max": [
        1.0,
        1.0
      ],
      "min": [
        0.0,
        0.0
      ],
      "type": "VEC2"
    },
    {
      "bufferView": 0,
      "byteOffset": 637632,
      "componentType": 5125,
      "count": 23328,
      "type": "SCALAR"
    },
    {
      "bufferView": 2,
      "byteOffset": 1715040,
      "componentType": 5126,
      "count": 9720,
      "max": [
        411.65594482421875,
        359.4411926269531,
        245.19346618652344
      ],
      "min": [
        -404.1416931152344,
        -353.1517028808594,
        -254.9058380126953
      ],
      "type": "VEC3"
    },
    {
      "bufferView": 2,
      "byteOffset": 1831680,
      "componentType": 5126,
      "count": 9720,
      "max": [
        0.0,
        -0.0,
        1.0
      ],
      "min": [
        0.0,
        -0.0,
        1.0
      ],
      "type": "VEC3"
    },
    {
      "bufferView": 1,
      "byteOffset": 571680,
      "componentType": 5126,
      "count": 9720,
      "max": [
        1.0,
        1.0
      ],
      "min": [
        0.0,
        0.0
      ],
      "type": "VEC2"
    },
    {
      "bufferView": 0,
      "byteOffset": 730944,
      "componentType": 5125,
      "count": 23328,
      "type": "SCALAR"
    },
    {
      "bufferView": 2,
      "byteOffset": 1948320,
      "componentType": 5126,
      "count": 9720,
      "max": [
        428.4555358886719,
        321.3767395019531,
        171.89894104003906
      ],
      "min": [
        -422.5462646484375,
        -371.8310546875,
        -232.16062927246094
      ],
      "type": "VEC3"
    },
    {
      "bufferView": 2,
      "byteOffset": 2064960,
      "componentType": 5126,
      "count": 9720,
      "max": [
        0.0,
        -0.0,
        1.0
      ],
      "min": [
        0.0,
        -0.0,
        1.0
      ],
      "type": "VEC3"
    },
    {
      "bufferView": 1,
      "byteOffset": 649440,
      "componentType": 5126,
      "count": 9720,
      "max": [
        1.0,
        1.0
      ],
      "min": [
        0.0,
        0.0
      ],
      "type": "VEC2"
    },
    {
      "bufferView": 0,
      "byteOffset": 824256,
      "componentType": 5125,
      "count": 23328,
      "type": "SCALAR"
    },
    {
      "bufferView": 2,
      "byteOffset": 2181600,
      "componentType": 5126,
      "count": 9720,
      "max": [
        420.1656799316406,
        365.537353515625,
        155.76834106445313
      ],
      "min": [
        -389.9865417480469,
        -374.8656921386719,
        -269.5197448730469
      ],
      "type": "VEC3"
    },
    {
      "bufferView": 2,
      "byteOffset": 2298240,
      "componentType": 5126,
      "count": 9720,
      "max": [
        0.0,
        -0.0,
        1.0
      ],
      "min": [
        0.0,
        -0.0,
        1.0
      ],
      "type": "VEC3"
    },
    {
      "bufferView": 1,
      "byteOffset": 727200,
      "componentType": 5126,
      "count": 9720,
      "max": [
        1.0,
        1.0
      ],
      "min": [
        0.0,
        0.0
      ],
      "type": "VEC2"
    },
    {
      "bufferView": 0,
      "byteOffset": 917568,
      "componentType": 5125,
      "count": 23328,
      "type": "SCALAR"
    },
    {
      "bufferView": 2,
      "byteOffset": 2414880,
      "componentType": 5126,
      "count": 9720,
      "max": [
        379.51904296875,
        373.6019592285156,
        211.1766815185547
      ],
      "min": [
        -417.71588134765625,
        -369.6571044921875,
        -249.8612823486328
      ],
      "type": "VEC3"
    },
    {
      "bufferView": 2,
      "byteOffset": 2531520,
      "componentType": 5126,
      "count": 9720,
      "max": [
        0.0,
        -0.0,
        1.0
      ],
      "min": [
        0.0,
        -0.0,
        1.0
      ],
      "type": "VEC3"
    },
    {
      "bufferView": 1,
      "byteOffset": 804960,
      "componentType": 5126,
      "count": 9720,
      "max": [
        1.0,
        1.0
      ],
      "min": [
        0.0,
        0.0
      ],
      "type": "VEC2"
    },
    {
      "bufferView": 0,
      "byteOffset": 1010880,
      "componentType": 5125,
      "count": 23328,
      "type": "SCALAR"
    },
    {
      "bufferView": 2,
      "byteOffset": 2648160,
      "componentType": 5126,
      "count": 6480,
      "max": [
        430.0862121582031,
        376.779541015625,
        260.27178955078125
      ],
      "min": [
        -419.5997009277344,
        -372.069580078125,
        -250.64288330078125
      ],
      "type": "VEC3"
    },
    {
      "bufferView": 2,
      "byteOffset": 2725920,
      "componentType": 5126,
      "count": 6480,
      "max": [
        0.0,
        -0.0,
        1.0
      ],
      "min": [
        0.0,
        -0.0,
        1.0
      ],
      "type": "VEC3"
    },
    {
      "bufferView": 1,
      "byteOffset": 882720,
      "componentType": 5126,
      "count": 6480,
      "max": [
        1.0,
        1.0
      ],
      "min": [
        0.0,
        0.0
      ],
      "type": "VEC2"
    },
    {
      "bufferView": 0,
      "byteOffset": 1104192,
      "componentType": 5125,
      "count": 15552,
      "type": "SCALAR"
    }
  ],
  "asset": {
    "extras": {
      "author": "willkings (https://sketchfab.com/willkings)",
      "license": "CC-BY-4.0 (http://creativecommons.org/licenses/by/4.0/)",
      "source": "https://sketchfab.com/3d-models/blade-bubbles-01-73d84ed858c64b889d69b6a432cb410a",
      "title": "Blade Bubbles 01"
    },
    "generator": "Sketchfab-12.67.0",
    "version": "2.0"
  },
  "bufferViews": [
    {
      "buffer": 0,
      "byteLength": 1166400,
      "name": "floatBufferViews",
      "target": 34963
    },
    {
      "buffer": 0,
      "byteLength": 934560,
      "byteOffset": 1166400,
      "byteStride": 8,
      "name": "floatBufferViews",
      "target": 34962
    },
    {
      "buffer": 0,
      "byteLength": 2803680,
      "byteOffset": 2100960,
      "byteStride": 12,
      "name": "floatBufferViews",
      "target": 34962
    }
  ],
  "buffers": [
    {
      "byteLength": 4904640,
      "uri": "scene.bin"
    }
  ],
  "extensionsRequired": [
    "KHR_materials_pbrSpecularGlossiness"
  ],
  "extensionsUsed": [
    "KHR_materials_pbrSpecularGlossiness"
  ],
  "materials": [
    {
      "doubleSided": true,
      "extensions": {
        "KHR_materials_pbrSpecularGlossiness": {
          "diffuseFactor": [
            0.733333,
            0.803922,
            0.588235,
            1.0
          ],
          "glossinessFactor": 0.0,
          "specularFactor": [
            0.0,
            0.0,
            0.0
          ]
        }
      },
      "name": "Bubble_01"
    },
    {
      "doubleSided": true,
      "extensions": {
        "KHR_materials_pbrSpecularGlossiness": {
          "diffuseFactor": [
            0.0,
            0.0,
            0.0,
            1.0
          ],
          "glossinessFactor": 0.0,
          "specularFactor": [
            0.0,
            0.0,
            0.0
          ]
        }
      },
      "name": "material"
    }
  ],
  "meshes": [
    {
      "name": "Object_0",
      "primitives": [
        {
          "attributes": {
            "NORMAL": 1,
            "POSITION": 0,
            "TEXCOORD_0": 2
          },
          "indices": 3,
          "material": 0,
          "mode": 4
        }
      ]
    },
    {
      "name": "Object_1",
      "primitives": [
        {
          "attributes": {
            "NORMAL": 5,
            "POSITION": 4,
            "TEXCOORD_0": 6
          },
          "indices": 7,
          "material": 0,
          "mode": 4
        }
      ]
    },
    {
      "name": "Object_2",
      "primitives": [
        {
          "attributes": {
            "NORMAL": 9,
            "POSITION": 8,
            "TEXCOORD_0": 10
          },
          "indices": 11,
          "material": 0,
          "mode": 4
        }
      ]
    },
    {
      "name": "Object_3",
      "primitives": [
        {
          "attributes": {
            "NORMAL": 13,
            "POSITION": 12,
            "TEXCOORD_0": 14
          },
          "indices": 15,
          "material": 0,
          "mode": 4
        }
      ]
    },
    {
      "name": "Object_4",
      "primitives": [
        {
          "attributes": {
            "NORMAL": 17,
            "POSITION": 16,
            "TEXCOORD_0": 18
          },
          "indices": 19,
          "material": 0,
          "mode": 4
        }
      ]
    },
    {
      "name": "Object_5",
      "primitives": [
        {
          "attributes": {
            "NORMAL": 21,
            "POSITION": 20,
            "TEXCOORD_0": 22
          },
          "indices": 23,
          "material": 0,
          "mode": 4
        }
      ]
    },
    {
      "name": "Object_6",
      "primitives": [
        {
          "attributes": {
            "NORMAL": 25,
            "POSITION": 24,
            "TEXCOORD_0": 26
          },
          "indices": 27,
          "material": 1,
          "mode": 4
        }
      ]
    },
    {
      "name": "Object_7",
      "primitives": [
        {
          "attributes": {
            "NORMAL": 29,
            "POSITION": 28,
            "TEXCOORD_0": 30
          },
          "indices": 31,
          "material": 1,
          "mode": 4
        }
      ]
    },
    {
      "name": "Object_8",
      "primitives": [
        {
          "attributes": {
            "NORMAL": 33,
            "POSITION": 32,
            "TEXCOORD_0": 34
          },
          "indices": 35,
          "material": 1,
          "mode": 4
        }
      ]
    },
    {
      "name": "Object_9",
      "primitives": [
        {
          "attributes": {
            "NORMAL": 37,
            "POSITION": 36,
            "TEXCOORD_0": 38
          },
          "indices": 39,
          "material": 1,
          "mode": 4
        }
      ]
    },
    {
      "name": "Object_10",
      "primitives": [
        {
          "attributes": {
            "NORMAL": 41,
            "POSITION": 40,
            "TEXCOORD_0": 42
          },
          "indices": 43,
          "material": 1,
          "mode": 4
        }
      ]
    },
    {
      "name": "Object_11",
      "primitives": [
        {
          "attributes": {
            "NORMAL": 45,
            "POSITION": 44,
            "TEXCOORD_0": 46
          },
          "indices": 47,
          "material": 1,
          "mode": 4
        }
      ]
    },
    {
      "name": "Object_12",
      "primitives": [
        {
          "attributes": {
            "NORMAL": 49,
            "POSITION": 48,
            "TEXCOORD_0": 50
          },
          "indices": 51,
          "material": 1,
          "mode": 4
        }
      ]
    }
  ],
  "nodes": [
    {
      "children": [
        1
      ],
      "matrix": [
        1.0,
        0.0,
        0.0,
        0.0,
        0.0,
        2.220446049250313e-16,
        -1.0,
        0.0,
        0.0,
        1.0,
        2.220446049250313e-16,
        0.0,
        0.0,
        0.0,
        0.0,
        1.0
      ],
      "name": "Sketchfab_model"
    },
    {
      "children": [
        2,
        3,
        4,
        5,
        6,
        7,
        8,
        9,
        10,
        11,
        12,
        13,
        14
      ],
      "name": "Blade_Bubbles_01.obj.cleaner.materialmerger.gles"
    },
    {
      "mesh": 0,
      "name": "Object_2"
    },
    {
      "mesh": 1,
      "name": "Object_3"
    },
    {
      "mesh": 2,
      "name": "Object_4"
    },
    {
      "mesh": 3,
      "name": "Object_5"
    },
    {
      "mesh": 4,
      "name": "Object_6"
    },
    {
      "mesh": 5,
      "name": "Object_7"
    },
    {
      "mesh": 6,
      "name": "Object_8"
    },
    {
      "mesh": 7,
      "name": "Object_9"
    },
    {
      "mesh": 8,
      "name": "Object_10"
    },
    {
      "mesh": 9,
      "name": "Object_11"
    },
    {
      "mesh": 10,
      "name": "Object_12"
    },
    {
      "mesh": 11,
      "name": "Object_13"
    },
    {
      "mesh": 12,
      "name": "Object_14"
    }
  ],
  "scene": 0,
  "scenes": [
    {
      "name": "Sketchfab_Scene",
      "nodes": [
        0
      ]
    }
  ]
}
